<?xml version="1.0" ?><svg viewBox="0 0 48 48" xmlns="http://www.w3.org/2000/svg"><title/><g data-name="Layer 23" id="Layer_23"><path d="M24,31H8a3,3,0,0,1-3-3V22a3,3,0,0,1,3-3H24a3,3,0,0,1,3,3v6A3,3,0,0,1,24,31ZM8,21a1,1,0,0,0-1,1v6a1,1,0,0,0,1,1H24a1,1,0,0,0,1-1V22a1,1,0,0,0-1-1Z"/><path d="M25,16H15a1,1,0,0,1-.92-.62,1,1,0,0,1,.21-1.09l10-10a1,1,0,0,1,1.09-.21A1,1,0,0,1,26,5V15A1,1,0,0,1,25,16Zm-7.59-2H24V7.41Z"/><path d="M12.19,27.19h-1.1l-1-1.6-1,1.6H8.09l1.5-2.51L8.17,22.29H9.26l.88,1.47L11,22.29H12.1l-1.42,2.38Z"/><path d="M13.69,26.27h1.87v.92H12.73v-4.9h1Z"/><path d="M17.69,27.29A2.17,2.17,0,0,1,16.46,27a1.74,1.74,0,0,1-.7-.88l.83-.48a1.11,1.11,0,0,0,1.13.74.93.93,0,0,0,.59-.14.44.44,0,0,0,.19-.37.47.47,0,0,0-.23-.41,3.66,3.66,0,0,0-.83-.31,4.91,4.91,0,0,1-.55-.19,2.4,2.4,0,0,1-.46-.27,1.07,1.07,0,0,1-.35-.41,1.55,1.55,0,0,1-.11-.59,1.29,1.29,0,0,1,.47-1.06,1.72,1.72,0,0,1,1.14-.4,1.91,1.91,0,0,1,1,.29,2.07,2.07,0,0,1,.71.81l-.82.47a1,1,0,0,0-.93-.63.78.78,0,0,0-.48.14.44.44,0,0,0-.17.35.47.47,0,0,0,.19.38,2.93,2.93,0,0,0,.74.31l.34.11.32.11.31.16a1.49,1.49,0,0,1,.24.18,1,1,0,0,1,.22.25,1,1,0,0,1,.12.3,1.23,1.23,0,0,1,.06.39,1.32,1.32,0,0,1-.5,1.08A1.94,1.94,0,0,1,17.69,27.29Z"/><path d="M23.69,27.19h-1.1l-.95-1.6-1,1.6H19.59l1.5-2.51-1.42-2.39h1.09l.88,1.47.87-1.47H23.6l-1.42,2.38Z"/><path d="M40,43H33.43a1,1,0,0,1,0-2H40a1,1,0,0,0,1-1V7a1,1,0,0,0-1-1H25.41L16,15.41V20a1,1,0,0,1-2,0V15a1,1,0,0,1,.29-.71l10-10A1,1,0,0,1,25,4H40a3,3,0,0,1,3,3V40A3,3,0,0,1,40,43Z"/><path d="M30.57,43H17a3,3,0,0,1-3-3V30a1,1,0,0,1,2,0V40a1,1,0,0,0,1,1H30.57a1,1,0,0,1,0,2Z"/><path d="M32,45a1,1,0,0,1-.81-.42l-5-7A1,1,0,0,1,27,36h1V31a1,1,0,0,1,1-1h6a1,1,0,0,1,1,1v5h1a1,1,0,0,1,.81,1.58l-5,7A1,1,0,0,1,32,45Zm-3.06-7L32,42.28,35.06,38H35a1,1,0,0,1-1-1V32H30v5a1,1,0,0,1-1,1Z"/></g></svg>