<?xml version="1.0" ?><svg id="Layer_1" style="enable-background:new 0 0 512 512;" version="1.1" viewBox="0 0 512 512" xml:space="preserve" xmlns="http://www.w3.org/2000/svg" xmlns:xlink="http://www.w3.org/1999/xlink"><g id="XMLID_2391_"><g id="XMLID_1717_"><g id="XMLID_1723_"><g id="XMLID_1733_"><g id="XMLID_1736_"><polygon id="XMLID_1737_" points="419.3,112.9 319.7,112.9 319.7,13.3 334.2,13.3 334.2,98.4 419.3,98.4      "/></g><g id="XMLID_1734_"><polygon id="XMLID_1735_" points="426.6,506 37.9,506 37.9,6 334,6 426.6,102.7 426.6,256 412.1,256 412.1,108.6 327.8,20.5        52.4,20.5 52.4,491.5 412.1,491.5 412.1,457.1 426.6,457.1      "/></g></g><g id="XMLID_1724_"><g id="XMLID_1731_"><rect height="14.5" id="XMLID_1732_" width="197.1" x="98.7" y="111.4"/></g><g id="XMLID_1729_"><rect height="14.5" id="XMLID_1730_" width="129.9" x="98.7" y="154.2"/></g><g id="XMLID_1727_"><rect height="14.5" id="XMLID_1728_" width="267" x="98.7" y="197.1"/></g><g id="XMLID_1725_"><rect height="14.5" id="XMLID_1726_" width="267" x="98.7" y="239.9"/></g></g></g><g id="XMLID_1718_"><path d="M419.3,475L341,361.7h33.5v-113h89.8v113h33.5L419.3,475z M368.7,376.2l50.7,73.3l50.7-73.3h-20.3v-113     H389v113H368.7z" id="XMLID_1719_"/></g></g><path d="M282,328.3H14.3v115H282l-56.9-57.5L282,328.3z M81.4,410.1l-10.5-18.3l-10.5,18.3h-9.6L66,385.6   l-15-24.1h9.5l10.1,18l10.2-18h9.6l-15,24.1l15.5,24.5H81.4z M130.5,410.1H99.6v-48.6h8.1v42.1h22.8V410.1z M168.4,407.2   c-3.2,2.4-7.3,3.6-12.4,3.6c-4.9,0-9.2-1.3-12.9-3.9c-3.7-2.6-5.5-6.3-5.3-11.1l0.1-0.2h7.8c0,2.9,1,5.1,3,6.6   c2,1.5,4.5,2.2,7.4,2.2c2.9,0,5.1-0.6,6.7-1.8c1.6-1.2,2.4-2.9,2.4-4.9c0-2-0.7-3.7-2.2-5c-1.4-1.3-4-2.4-7.6-3.5   c-5.2-1.4-9.3-3.3-12.1-5.7c-2.8-2.3-4.3-5.4-4.3-9.2c0-3.9,1.6-7.1,4.7-9.7c3.1-2.5,7.1-3.8,12-3.8c5.3,0,9.5,1.4,12.6,4.2   c3.1,2.8,4.7,6.3,4.6,10.4l-0.1,0.2h-7.8c0-2.6-0.9-4.6-2.6-6.1c-1.7-1.5-4-2.3-6.8-2.3c-2.7,0-4.8,0.6-6.3,1.9   c-1.5,1.3-2.2,3-2.2,5c0,1.9,0.8,3.4,2.4,4.6c1.6,1.2,4.3,2.4,8.1,3.5c5.1,1.4,9,3.4,11.6,5.8c2.7,2.5,4,5.6,4,9.4   C173.1,401.5,171.5,404.8,168.4,407.2z M210.7,410.1l-10.5-18.3l-10.5,18.3H180l15.3-24.5l-15-24.1h9.5l10.1,18l10.2-18h9.6   l-15,24.1l15.5,24.5H210.7z" id="XMLID_2375_"/></g></svg>